%TF.GenerationSoftware,KiCad,Pcbnew,6.0.2+dfsg-1*%
%TF.CreationDate,2023-04-12T19:32:32+02:00*%
%TF.ProjectId,schema_H-brug,73636865-6d61-45f4-982d-627275672e6b,V1*%
%TF.SameCoordinates,Original*%
%TF.FileFunction,Legend,Top*%
%TF.FilePolarity,Positive*%
%FSLAX46Y46*%
G04 Gerber Fmt 4.6, Leading zero omitted, Abs format (unit mm)*
G04 Created by KiCad (PCBNEW 6.0.2+dfsg-1) date 2023-04-12 19:32:32*
%MOMM*%
%LPD*%
G01*
G04 APERTURE LIST*
%ADD10C,0.150000*%
%ADD11C,0.120000*%
G04 APERTURE END LIST*
D10*
%TO.C,TP3*%
X124214095Y-95508380D02*
X124785523Y-95508380D01*
X124499809Y-96508380D02*
X124499809Y-95508380D01*
X125118857Y-96508380D02*
X125118857Y-95508380D01*
X125499809Y-95508380D01*
X125595047Y-95556000D01*
X125642666Y-95603619D01*
X125690285Y-95698857D01*
X125690285Y-95841714D01*
X125642666Y-95936952D01*
X125595047Y-95984571D01*
X125499809Y-96032190D01*
X125118857Y-96032190D01*
X126023619Y-95508380D02*
X126642666Y-95508380D01*
X126309333Y-95889333D01*
X126452190Y-95889333D01*
X126547428Y-95936952D01*
X126595047Y-95984571D01*
X126642666Y-96079809D01*
X126642666Y-96317904D01*
X126595047Y-96413142D01*
X126547428Y-96460761D01*
X126452190Y-96508380D01*
X126166476Y-96508380D01*
X126071238Y-96460761D01*
X126023619Y-96413142D01*
%TO.C,TP8*%
X176538095Y-77982380D02*
X177109523Y-77982380D01*
X176823809Y-78982380D02*
X176823809Y-77982380D01*
X177442857Y-78982380D02*
X177442857Y-77982380D01*
X177823809Y-77982380D01*
X177919047Y-78030000D01*
X177966666Y-78077619D01*
X178014285Y-78172857D01*
X178014285Y-78315714D01*
X177966666Y-78410952D01*
X177919047Y-78458571D01*
X177823809Y-78506190D01*
X177442857Y-78506190D01*
X178585714Y-78410952D02*
X178490476Y-78363333D01*
X178442857Y-78315714D01*
X178395238Y-78220476D01*
X178395238Y-78172857D01*
X178442857Y-78077619D01*
X178490476Y-78030000D01*
X178585714Y-77982380D01*
X178776190Y-77982380D01*
X178871428Y-78030000D01*
X178919047Y-78077619D01*
X178966666Y-78172857D01*
X178966666Y-78220476D01*
X178919047Y-78315714D01*
X178871428Y-78363333D01*
X178776190Y-78410952D01*
X178585714Y-78410952D01*
X178490476Y-78458571D01*
X178442857Y-78506190D01*
X178395238Y-78601428D01*
X178395238Y-78791904D01*
X178442857Y-78887142D01*
X178490476Y-78934761D01*
X178585714Y-78982380D01*
X178776190Y-78982380D01*
X178871428Y-78934761D01*
X178919047Y-78887142D01*
X178966666Y-78791904D01*
X178966666Y-78601428D01*
X178919047Y-78506190D01*
X178871428Y-78458571D01*
X178776190Y-78410952D01*
%TO.C,TP7*%
X158758095Y-98302380D02*
X159329523Y-98302380D01*
X159043809Y-99302380D02*
X159043809Y-98302380D01*
X159662857Y-99302380D02*
X159662857Y-98302380D01*
X160043809Y-98302380D01*
X160139047Y-98350000D01*
X160186666Y-98397619D01*
X160234285Y-98492857D01*
X160234285Y-98635714D01*
X160186666Y-98730952D01*
X160139047Y-98778571D01*
X160043809Y-98826190D01*
X159662857Y-98826190D01*
X160567619Y-98302380D02*
X161234285Y-98302380D01*
X160805714Y-99302380D01*
%TO.C,TP6*%
X158758095Y-75442380D02*
X159329523Y-75442380D01*
X159043809Y-76442380D02*
X159043809Y-75442380D01*
X159662857Y-76442380D02*
X159662857Y-75442380D01*
X160043809Y-75442380D01*
X160139047Y-75490000D01*
X160186666Y-75537619D01*
X160234285Y-75632857D01*
X160234285Y-75775714D01*
X160186666Y-75870952D01*
X160139047Y-75918571D01*
X160043809Y-75966190D01*
X159662857Y-75966190D01*
X161091428Y-75442380D02*
X160900952Y-75442380D01*
X160805714Y-75490000D01*
X160758095Y-75537619D01*
X160662857Y-75680476D01*
X160615238Y-75870952D01*
X160615238Y-76251904D01*
X160662857Y-76347142D01*
X160710476Y-76394761D01*
X160805714Y-76442380D01*
X160996190Y-76442380D01*
X161091428Y-76394761D01*
X161139047Y-76347142D01*
X161186666Y-76251904D01*
X161186666Y-76013809D01*
X161139047Y-75918571D01*
X161091428Y-75870952D01*
X160996190Y-75823333D01*
X160805714Y-75823333D01*
X160710476Y-75870952D01*
X160662857Y-75918571D01*
X160615238Y-76013809D01*
%TO.C,TP5*%
X176538095Y-98302380D02*
X177109523Y-98302380D01*
X176823809Y-99302380D02*
X176823809Y-98302380D01*
X177442857Y-99302380D02*
X177442857Y-98302380D01*
X177823809Y-98302380D01*
X177919047Y-98350000D01*
X177966666Y-98397619D01*
X178014285Y-98492857D01*
X178014285Y-98635714D01*
X177966666Y-98730952D01*
X177919047Y-98778571D01*
X177823809Y-98826190D01*
X177442857Y-98826190D01*
X178919047Y-98302380D02*
X178442857Y-98302380D01*
X178395238Y-98778571D01*
X178442857Y-98730952D01*
X178538095Y-98683333D01*
X178776190Y-98683333D01*
X178871428Y-98730952D01*
X178919047Y-98778571D01*
X178966666Y-98873809D01*
X178966666Y-99111904D01*
X178919047Y-99207142D01*
X178871428Y-99254761D01*
X178776190Y-99302380D01*
X178538095Y-99302380D01*
X178442857Y-99254761D01*
X178395238Y-99207142D01*
%TO.C,TP4*%
X123960095Y-77220380D02*
X124531523Y-77220380D01*
X124245809Y-78220380D02*
X124245809Y-77220380D01*
X124864857Y-78220380D02*
X124864857Y-77220380D01*
X125245809Y-77220380D01*
X125341047Y-77268000D01*
X125388666Y-77315619D01*
X125436285Y-77410857D01*
X125436285Y-77553714D01*
X125388666Y-77648952D01*
X125341047Y-77696571D01*
X125245809Y-77744190D01*
X124864857Y-77744190D01*
X126293428Y-77553714D02*
X126293428Y-78220380D01*
X126055333Y-77172761D02*
X125817238Y-77887047D01*
X126436285Y-77887047D01*
%TO.C,TP2*%
X115578095Y-75442380D02*
X116149523Y-75442380D01*
X115863809Y-76442380D02*
X115863809Y-75442380D01*
X116482857Y-76442380D02*
X116482857Y-75442380D01*
X116863809Y-75442380D01*
X116959047Y-75490000D01*
X117006666Y-75537619D01*
X117054285Y-75632857D01*
X117054285Y-75775714D01*
X117006666Y-75870952D01*
X116959047Y-75918571D01*
X116863809Y-75966190D01*
X116482857Y-75966190D01*
X117435238Y-75537619D02*
X117482857Y-75490000D01*
X117578095Y-75442380D01*
X117816190Y-75442380D01*
X117911428Y-75490000D01*
X117959047Y-75537619D01*
X118006666Y-75632857D01*
X118006666Y-75728095D01*
X117959047Y-75870952D01*
X117387619Y-76442380D01*
X118006666Y-76442380D01*
%TO.C,TP1*%
X115578095Y-98302380D02*
X116149523Y-98302380D01*
X115863809Y-99302380D02*
X115863809Y-98302380D01*
X116482857Y-99302380D02*
X116482857Y-98302380D01*
X116863809Y-98302380D01*
X116959047Y-98350000D01*
X117006666Y-98397619D01*
X117054285Y-98492857D01*
X117054285Y-98635714D01*
X117006666Y-98730952D01*
X116959047Y-98778571D01*
X116863809Y-98826190D01*
X116482857Y-98826190D01*
X118006666Y-99302380D02*
X117435238Y-99302380D01*
X117720952Y-99302380D02*
X117720952Y-98302380D01*
X117625714Y-98445238D01*
X117530476Y-98540476D01*
X117435238Y-98588095D01*
%TO.C,R2*%
X167473333Y-80152380D02*
X167140000Y-79676190D01*
X166901904Y-80152380D02*
X166901904Y-79152380D01*
X167282857Y-79152380D01*
X167378095Y-79200000D01*
X167425714Y-79247619D01*
X167473333Y-79342857D01*
X167473333Y-79485714D01*
X167425714Y-79580952D01*
X167378095Y-79628571D01*
X167282857Y-79676190D01*
X166901904Y-79676190D01*
X167854285Y-79247619D02*
X167901904Y-79200000D01*
X167997142Y-79152380D01*
X168235238Y-79152380D01*
X168330476Y-79200000D01*
X168378095Y-79247619D01*
X168425714Y-79342857D01*
X168425714Y-79438095D01*
X168378095Y-79580952D01*
X167806666Y-80152380D01*
X168425714Y-80152380D01*
%TO.C,R1*%
X167473333Y-101092380D02*
X167140000Y-100616190D01*
X166901904Y-101092380D02*
X166901904Y-100092380D01*
X167282857Y-100092380D01*
X167378095Y-100140000D01*
X167425714Y-100187619D01*
X167473333Y-100282857D01*
X167473333Y-100425714D01*
X167425714Y-100520952D01*
X167378095Y-100568571D01*
X167282857Y-100616190D01*
X166901904Y-100616190D01*
X168425714Y-101092380D02*
X167854285Y-101092380D01*
X168140000Y-101092380D02*
X168140000Y-100092380D01*
X168044761Y-100235238D01*
X167949523Y-100330476D01*
X167854285Y-100378095D01*
%TO.C,Q4*%
X131984761Y-76517619D02*
X131889523Y-76470000D01*
X131794285Y-76374761D01*
X131651428Y-76231904D01*
X131556190Y-76184285D01*
X131460952Y-76184285D01*
X131508571Y-76422380D02*
X131413333Y-76374761D01*
X131318095Y-76279523D01*
X131270476Y-76089047D01*
X131270476Y-75755714D01*
X131318095Y-75565238D01*
X131413333Y-75470000D01*
X131508571Y-75422380D01*
X131699047Y-75422380D01*
X131794285Y-75470000D01*
X131889523Y-75565238D01*
X131937142Y-75755714D01*
X131937142Y-76089047D01*
X131889523Y-76279523D01*
X131794285Y-76374761D01*
X131699047Y-76422380D01*
X131508571Y-76422380D01*
X132794285Y-75755714D02*
X132794285Y-76422380D01*
X132556190Y-75374761D02*
X132318095Y-76089047D01*
X132937142Y-76089047D01*
%TO.C,Q3*%
X131984761Y-102377619D02*
X131889523Y-102330000D01*
X131794285Y-102234761D01*
X131651428Y-102091904D01*
X131556190Y-102044285D01*
X131460952Y-102044285D01*
X131508571Y-102282380D02*
X131413333Y-102234761D01*
X131318095Y-102139523D01*
X131270476Y-101949047D01*
X131270476Y-101615714D01*
X131318095Y-101425238D01*
X131413333Y-101330000D01*
X131508571Y-101282380D01*
X131699047Y-101282380D01*
X131794285Y-101330000D01*
X131889523Y-101425238D01*
X131937142Y-101615714D01*
X131937142Y-101949047D01*
X131889523Y-102139523D01*
X131794285Y-102234761D01*
X131699047Y-102282380D01*
X131508571Y-102282380D01*
X132270476Y-101282380D02*
X132889523Y-101282380D01*
X132556190Y-101663333D01*
X132699047Y-101663333D01*
X132794285Y-101710952D01*
X132841904Y-101758571D01*
X132889523Y-101853809D01*
X132889523Y-102091904D01*
X132841904Y-102187142D01*
X132794285Y-102234761D01*
X132699047Y-102282380D01*
X132413333Y-102282380D01*
X132318095Y-102234761D01*
X132270476Y-102187142D01*
%TO.C,Q2*%
X144684761Y-102377619D02*
X144589523Y-102330000D01*
X144494285Y-102234761D01*
X144351428Y-102091904D01*
X144256190Y-102044285D01*
X144160952Y-102044285D01*
X144208571Y-102282380D02*
X144113333Y-102234761D01*
X144018095Y-102139523D01*
X143970476Y-101949047D01*
X143970476Y-101615714D01*
X144018095Y-101425238D01*
X144113333Y-101330000D01*
X144208571Y-101282380D01*
X144399047Y-101282380D01*
X144494285Y-101330000D01*
X144589523Y-101425238D01*
X144637142Y-101615714D01*
X144637142Y-101949047D01*
X144589523Y-102139523D01*
X144494285Y-102234761D01*
X144399047Y-102282380D01*
X144208571Y-102282380D01*
X145018095Y-101377619D02*
X145065714Y-101330000D01*
X145160952Y-101282380D01*
X145399047Y-101282380D01*
X145494285Y-101330000D01*
X145541904Y-101377619D01*
X145589523Y-101472857D01*
X145589523Y-101568095D01*
X145541904Y-101710952D01*
X144970476Y-102282380D01*
X145589523Y-102282380D01*
%TO.C,Q1*%
X144684761Y-76517619D02*
X144589523Y-76470000D01*
X144494285Y-76374761D01*
X144351428Y-76231904D01*
X144256190Y-76184285D01*
X144160952Y-76184285D01*
X144208571Y-76422380D02*
X144113333Y-76374761D01*
X144018095Y-76279523D01*
X143970476Y-76089047D01*
X143970476Y-75755714D01*
X144018095Y-75565238D01*
X144113333Y-75470000D01*
X144208571Y-75422380D01*
X144399047Y-75422380D01*
X144494285Y-75470000D01*
X144589523Y-75565238D01*
X144637142Y-75755714D01*
X144637142Y-76089047D01*
X144589523Y-76279523D01*
X144494285Y-76374761D01*
X144399047Y-76422380D01*
X144208571Y-76422380D01*
X145589523Y-76422380D02*
X145018095Y-76422380D01*
X145303809Y-76422380D02*
X145303809Y-75422380D01*
X145208571Y-75565238D01*
X145113333Y-75660476D01*
X145018095Y-75708095D01*
%TO.C,M1*%
X175052380Y-92249523D02*
X174052380Y-92249523D01*
X174766666Y-91916190D01*
X174052380Y-91582857D01*
X175052380Y-91582857D01*
X175052380Y-90582857D02*
X175052380Y-91154285D01*
X175052380Y-90868571D02*
X174052380Y-90868571D01*
X174195238Y-90963809D01*
X174290476Y-91059047D01*
X174338095Y-91154285D01*
%TO.C,J1*%
X116506666Y-95762380D02*
X116506666Y-96476666D01*
X116459047Y-96619523D01*
X116363809Y-96714761D01*
X116220952Y-96762380D01*
X116125714Y-96762380D01*
X117506666Y-96762380D02*
X116935238Y-96762380D01*
X117220952Y-96762380D02*
X117220952Y-95762380D01*
X117125714Y-95905238D01*
X117030476Y-96000476D01*
X116935238Y-96048095D01*
%TO.C,D7*%
X140787279Y-82018095D02*
X139787279Y-82018095D01*
X139787279Y-81780000D01*
X139834899Y-81637142D01*
X139930137Y-81541904D01*
X140025375Y-81494285D01*
X140215851Y-81446666D01*
X140358708Y-81446666D01*
X140549184Y-81494285D01*
X140644422Y-81541904D01*
X140739660Y-81637142D01*
X140787279Y-81780000D01*
X140787279Y-82018095D01*
X139787279Y-81113333D02*
X139787279Y-80446666D01*
X140787279Y-80875238D01*
X135926666Y-81958095D02*
X135926666Y-81481904D01*
X136212380Y-82053333D02*
X135212380Y-81720000D01*
X136212380Y-81386666D01*
%TO.C,D6*%
X140787279Y-97258095D02*
X139787279Y-97258095D01*
X139787279Y-97020000D01*
X139834899Y-96877142D01*
X139930137Y-96781904D01*
X140025375Y-96734285D01*
X140215851Y-96686666D01*
X140358708Y-96686666D01*
X140549184Y-96734285D01*
X140644422Y-96781904D01*
X140739660Y-96877142D01*
X140787279Y-97020000D01*
X140787279Y-97258095D01*
X139787279Y-95829523D02*
X139787279Y-96020000D01*
X139834899Y-96115238D01*
X139882518Y-96162857D01*
X140025375Y-96258095D01*
X140215851Y-96305714D01*
X140596803Y-96305714D01*
X140692041Y-96258095D01*
X140739660Y-96210476D01*
X140787279Y-96115238D01*
X140787279Y-95924761D01*
X140739660Y-95829523D01*
X140692041Y-95781904D01*
X140596803Y-95734285D01*
X140358708Y-95734285D01*
X140263470Y-95781904D01*
X140215851Y-95829523D01*
X140168232Y-95924761D01*
X140168232Y-96115238D01*
X140215851Y-96210476D01*
X140263470Y-96258095D01*
X140358708Y-96305714D01*
X135926666Y-97198095D02*
X135926666Y-96721904D01*
X136212380Y-97293333D02*
X135212380Y-96960000D01*
X136212380Y-96626666D01*
%TO.C,D5*%
X155471904Y-93012380D02*
X155471904Y-92012380D01*
X155710000Y-92012380D01*
X155852857Y-92060000D01*
X155948095Y-92155238D01*
X155995714Y-92250476D01*
X156043333Y-92440952D01*
X156043333Y-92583809D01*
X155995714Y-92774285D01*
X155948095Y-92869523D01*
X155852857Y-92964761D01*
X155710000Y-93012380D01*
X155471904Y-93012380D01*
X156948095Y-92012380D02*
X156471904Y-92012380D01*
X156424285Y-92488571D01*
X156471904Y-92440952D01*
X156567142Y-92393333D01*
X156805238Y-92393333D01*
X156900476Y-92440952D01*
X156948095Y-92488571D01*
X156995714Y-92583809D01*
X156995714Y-92821904D01*
X156948095Y-92917142D01*
X156900476Y-92964761D01*
X156805238Y-93012380D01*
X156567142Y-93012380D01*
X156471904Y-92964761D01*
X156424285Y-92917142D01*
%TO.C,D4*%
X155471904Y-80312380D02*
X155471904Y-79312380D01*
X155710000Y-79312380D01*
X155852857Y-79360000D01*
X155948095Y-79455238D01*
X155995714Y-79550476D01*
X156043333Y-79740952D01*
X156043333Y-79883809D01*
X155995714Y-80074285D01*
X155948095Y-80169523D01*
X155852857Y-80264761D01*
X155710000Y-80312380D01*
X155471904Y-80312380D01*
X156900476Y-79645714D02*
X156900476Y-80312380D01*
X156662380Y-79264761D02*
X156424285Y-79979047D01*
X157043333Y-79979047D01*
%TO.C,D3*%
X123721904Y-95067279D02*
X123721904Y-94067279D01*
X123960000Y-94067279D01*
X124102857Y-94114899D01*
X124198095Y-94210137D01*
X124245714Y-94305375D01*
X124293333Y-94495851D01*
X124293333Y-94638708D01*
X124245714Y-94829184D01*
X124198095Y-94924422D01*
X124102857Y-95019660D01*
X123960000Y-95067279D01*
X123721904Y-95067279D01*
X124626666Y-94067279D02*
X125245714Y-94067279D01*
X124912380Y-94448232D01*
X125055238Y-94448232D01*
X125150476Y-94495851D01*
X125198095Y-94543470D01*
X125245714Y-94638708D01*
X125245714Y-94876803D01*
X125198095Y-94972041D01*
X125150476Y-95019660D01*
X125055238Y-95067279D01*
X124769523Y-95067279D01*
X124674285Y-95019660D01*
X124626666Y-94972041D01*
X123781904Y-90206666D02*
X124258095Y-90206666D01*
X123686666Y-90492380D02*
X124020000Y-89492380D01*
X124353333Y-90492380D01*
%TO.C,D2*%
X147137481Y-97258095D02*
X146137481Y-97258095D01*
X146137481Y-97020000D01*
X146185101Y-96877142D01*
X146280339Y-96781904D01*
X146375577Y-96734285D01*
X146566053Y-96686666D01*
X146708910Y-96686666D01*
X146899386Y-96734285D01*
X146994624Y-96781904D01*
X147089862Y-96877142D01*
X147137481Y-97020000D01*
X147137481Y-97258095D01*
X146232720Y-96305714D02*
X146185101Y-96258095D01*
X146137481Y-96162857D01*
X146137481Y-95924761D01*
X146185101Y-95829523D01*
X146232720Y-95781904D01*
X146327958Y-95734285D01*
X146423196Y-95734285D01*
X146566053Y-95781904D01*
X147137481Y-96353333D01*
X147137481Y-95734285D01*
X151426666Y-96318095D02*
X151426666Y-95841904D01*
X151712380Y-96413333D02*
X150712380Y-96080000D01*
X151712380Y-95746666D01*
%TO.C,D1*%
X147137481Y-82018095D02*
X146137481Y-82018095D01*
X146137481Y-81780000D01*
X146185101Y-81637142D01*
X146280339Y-81541904D01*
X146375577Y-81494285D01*
X146566053Y-81446666D01*
X146708910Y-81446666D01*
X146899386Y-81494285D01*
X146994624Y-81541904D01*
X147089862Y-81637142D01*
X147137481Y-81780000D01*
X147137481Y-82018095D01*
X147137481Y-80494285D02*
X147137481Y-81065714D01*
X147137481Y-80780000D02*
X146137481Y-80780000D01*
X146280339Y-80875238D01*
X146375577Y-80970476D01*
X146423196Y-81065714D01*
X151426666Y-81078095D02*
X151426666Y-80601904D01*
X151712380Y-81173333D02*
X150712380Y-80840000D01*
X151712380Y-80506666D01*
%TO.C,TP3*%
X127226000Y-98806000D02*
G75*
G03*
X127226000Y-98806000I-1750000J0D01*
G01*
%TO.C,TP8*%
X179550000Y-81280000D02*
G75*
G03*
X179550000Y-81280000I-1750000J0D01*
G01*
%TO.C,TP7*%
X161770000Y-101600000D02*
G75*
G03*
X161770000Y-101600000I-1750000J0D01*
G01*
%TO.C,TP6*%
X161770000Y-78740000D02*
G75*
G03*
X161770000Y-78740000I-1750000J0D01*
G01*
%TO.C,TP5*%
X179550000Y-101600000D02*
G75*
G03*
X179550000Y-101600000I-1750000J0D01*
G01*
%TO.C,TP4*%
X126972000Y-80518000D02*
G75*
G03*
X126972000Y-80518000I-1750000J0D01*
G01*
%TO.C,TP2*%
X118590000Y-78740000D02*
G75*
G03*
X118590000Y-78740000I-1750000J0D01*
G01*
%TO.C,TP1*%
X118590000Y-101600000D02*
G75*
G03*
X118590000Y-101600000I-1750000J0D01*
G01*
D11*
%TO.C,R2*%
X168220000Y-83820000D02*
X168680000Y-83820000D01*
X168220000Y-83820000D02*
G75*
G03*
X168220000Y-83820000I-3120000J0D01*
G01*
%TO.C,R1*%
X167060000Y-96520000D02*
X166600000Y-96520000D01*
X173300000Y-96520000D02*
G75*
G03*
X173300000Y-96520000I-3120000J0D01*
G01*
%TO.C,Q4*%
X132080000Y-77410000D02*
X133410000Y-77410000D01*
X133410000Y-80010000D02*
X133410000Y-85150000D01*
X130750000Y-80010000D02*
X130750000Y-85150000D01*
X130750000Y-80010000D02*
X133410000Y-80010000D01*
X133410000Y-77410000D02*
X133410000Y-78740000D01*
X130750000Y-85150000D02*
X133410000Y-85150000D01*
%TO.C,Q3*%
X132080000Y-100390000D02*
X130750000Y-100390000D01*
X130750000Y-97790000D02*
X130750000Y-92650000D01*
X133410000Y-97790000D02*
X133410000Y-92650000D01*
X133410000Y-97790000D02*
X130750000Y-97790000D01*
X130750000Y-100390000D02*
X130750000Y-99060000D01*
X133410000Y-92650000D02*
X130750000Y-92650000D01*
%TO.C,Q2*%
X144780000Y-100390000D02*
X143450000Y-100390000D01*
X143450000Y-97790000D02*
X143450000Y-92650000D01*
X146110000Y-97790000D02*
X146110000Y-92650000D01*
X146110000Y-97790000D02*
X143450000Y-97790000D01*
X143450000Y-100390000D02*
X143450000Y-99060000D01*
X146110000Y-92650000D02*
X143450000Y-92650000D01*
%TO.C,Q1*%
X143450000Y-85150000D02*
X146110000Y-85150000D01*
X146110000Y-77410000D02*
X146110000Y-78740000D01*
X143450000Y-80010000D02*
X146110000Y-80010000D01*
X143450000Y-80010000D02*
X143450000Y-85150000D01*
X146110000Y-80010000D02*
X146110000Y-85150000D01*
X144780000Y-77410000D02*
X146110000Y-77410000D01*
%TO.C,M1*%
X174890000Y-93680000D02*
X175490000Y-93980000D01*
X187910000Y-97630000D02*
X187910000Y-85250000D01*
X187910000Y-92980000D02*
X186410000Y-93230000D01*
X186410000Y-93230000D02*
X186410000Y-94730000D01*
X184610000Y-85250000D02*
X186410000Y-85250000D01*
X174890000Y-94280000D02*
X174890000Y-93680000D01*
X175690000Y-97630000D02*
X187910000Y-97630000D01*
X186410000Y-89650000D02*
X187910000Y-89900000D01*
X175490000Y-93980000D02*
X174890000Y-94280000D01*
X186410000Y-97630000D02*
X184610000Y-97630000D01*
X187910000Y-85250000D02*
X175690000Y-85250000D01*
X186410000Y-94730000D02*
X187910000Y-94980000D01*
X187910000Y-89900000D02*
X187910000Y-87900000D01*
X175690000Y-85250000D02*
X175690000Y-97630000D01*
X186410000Y-85250000D02*
X186410000Y-97630000D01*
X186410000Y-88150000D02*
X186410000Y-89650000D01*
X187910000Y-94980000D02*
X187910000Y-92980000D01*
X184610000Y-97630000D02*
X184610000Y-85250000D01*
X187910000Y-87900000D02*
X186410000Y-88150000D01*
%TO.C,J1*%
X115510000Y-92710000D02*
X115510000Y-85030000D01*
X118170000Y-93980000D02*
X118170000Y-95310000D01*
X118170000Y-85030000D02*
X115510000Y-85030000D01*
X118170000Y-92710000D02*
X115510000Y-92710000D01*
X118170000Y-95310000D02*
X116840000Y-95310000D01*
X118170000Y-92710000D02*
X118170000Y-85030000D01*
%TO.C,D7*%
X137160000Y-80914899D02*
X137160000Y-82120000D01*
X139334899Y-78740000D02*
G75*
G03*
X139334899Y-78740000I-2174899J0D01*
G01*
%TO.C,D6*%
X137160000Y-96154899D02*
X137160000Y-97360000D01*
X139334899Y-93980000D02*
G75*
G03*
X139334899Y-93980000I-2174899J0D01*
G01*
%TO.C,D5*%
X153650000Y-94975000D02*
X153650000Y-98065000D01*
X153650000Y-98064830D02*
G75*
G03*
X159200000Y-96519538I2560000J1544830D01*
G01*
X159200000Y-96520462D02*
G75*
G03*
X153650000Y-94975170I-2990000J462D01*
G01*
X158710000Y-96520000D02*
G75*
G03*
X158710000Y-96520000I-2500000J0D01*
G01*
%TO.C,D4*%
X153650000Y-82275000D02*
X153650000Y-85365000D01*
X153650000Y-85364830D02*
G75*
G03*
X159200000Y-83819538I2560000J1544830D01*
G01*
X159200000Y-83820462D02*
G75*
G03*
X153650000Y-82275170I-2990000J462D01*
G01*
X158710000Y-83820000D02*
G75*
G03*
X158710000Y-83820000I-2500000J0D01*
G01*
%TO.C,D3*%
X124825101Y-91440000D02*
X123620000Y-91440000D01*
X129174899Y-91440000D02*
G75*
G03*
X129174899Y-91440000I-2174899J0D01*
G01*
%TO.C,D2*%
X149860000Y-96885101D02*
X149860000Y-95680000D01*
X152034899Y-99060000D02*
G75*
G03*
X152034899Y-99060000I-2174899J0D01*
G01*
%TO.C,D1*%
X149860000Y-81645101D02*
X149860000Y-80440000D01*
X152034899Y-83820000D02*
G75*
G03*
X152034899Y-83820000I-2174899J0D01*
G01*
%TD*%
M02*
