%TF.GenerationSoftware,KiCad,Pcbnew,6.0.2+dfsg-1*%
%TF.CreationDate,2023-04-12T19:32:32+02:00*%
%TF.ProjectId,schema_H-brug,73636865-6d61-45f4-982d-627275672e6b,V1*%
%TF.SameCoordinates,Original*%
%TF.FileFunction,Soldermask,Top*%
%TF.FilePolarity,Negative*%
%FSLAX46Y46*%
G04 Gerber Fmt 4.6, Leading zero omitted, Abs format (unit mm)*
G04 Created by KiCad (PCBNEW 6.0.2+dfsg-1) date 2023-04-12 19:32:32*
%MOMM*%
%LPD*%
G01*
G04 APERTURE LIST*
G04 Aperture macros list*
%AMRoundRect*
0 Rectangle with rounded corners*
0 $1 Rounding radius*
0 $2 $3 $4 $5 $6 $7 $8 $9 X,Y pos of 4 corners*
0 Add a 4 corners polygon primitive as box body*
4,1,4,$2,$3,$4,$5,$6,$7,$8,$9,$2,$3,0*
0 Add four circle primitives for the rounded corners*
1,1,$1+$1,$2,$3*
1,1,$1+$1,$4,$5*
1,1,$1+$1,$6,$7*
1,1,$1+$1,$8,$9*
0 Add four rect primitives between the rounded corners*
20,1,$1+$1,$2,$3,$4,$5,0*
20,1,$1+$1,$4,$5,$6,$7,0*
20,1,$1+$1,$6,$7,$8,$9,0*
20,1,$1+$1,$8,$9,$2,$3,0*%
G04 Aperture macros list end*
%ADD10C,2.800000*%
%ADD11C,2.400000*%
%ADD12O,2.400000X2.400000*%
%ADD13R,1.700000X1.700000*%
%ADD14O,1.700000X1.700000*%
%ADD15RoundRect,0.249999X1.550001X-0.790001X1.550001X0.790001X-1.550001X0.790001X-1.550001X-0.790001X0*%
%ADD16O,3.600000X2.080000*%
%ADD17R,2.800000X2.800000*%
%ADD18O,2.800000X2.800000*%
%ADD19R,1.800000X1.800000*%
%ADD20C,1.800000*%
G04 APERTURE END LIST*
D10*
%TO.C,TP3*%
X125476000Y-98806000D03*
%TD*%
%TO.C,TP8*%
X177800000Y-81280000D03*
%TD*%
%TO.C,TP7*%
X160020000Y-101600000D03*
%TD*%
%TO.C,TP6*%
X160020000Y-78740000D03*
%TD*%
%TO.C,TP5*%
X177800000Y-101600000D03*
%TD*%
%TO.C,TP4*%
X125222000Y-80518000D03*
%TD*%
%TO.C,TP2*%
X116840000Y-78740000D03*
%TD*%
%TO.C,TP1*%
X116840000Y-101600000D03*
%TD*%
D11*
%TO.C,R2*%
X165100000Y-83820000D03*
D12*
X170180000Y-83820000D03*
%TD*%
D11*
%TO.C,R1*%
X170180000Y-96520000D03*
D12*
X165100000Y-96520000D03*
%TD*%
D13*
%TO.C,Q4*%
X132080000Y-78740000D03*
D14*
X132080000Y-81280000D03*
X132080000Y-83820000D03*
%TD*%
D13*
%TO.C,Q3*%
X132080000Y-99060000D03*
D14*
X132080000Y-96520000D03*
X132080000Y-93980000D03*
%TD*%
D13*
%TO.C,Q2*%
X144780000Y-99060000D03*
D14*
X144780000Y-96520000D03*
X144780000Y-93980000D03*
%TD*%
%TO.C,Q1*%
X144780000Y-83820000D03*
X144780000Y-81280000D03*
D13*
X144780000Y-78740000D03*
%TD*%
D15*
%TO.C,M1*%
X177800000Y-93980000D03*
D16*
X177800000Y-88900000D03*
%TD*%
D13*
%TO.C,J1*%
X116840000Y-93980000D03*
D14*
X116840000Y-91440000D03*
X116840000Y-88900000D03*
X116840000Y-86360000D03*
%TD*%
D17*
%TO.C,D7*%
X137160000Y-78740000D03*
D18*
X137160000Y-83820000D03*
%TD*%
D17*
%TO.C,D6*%
X137160000Y-93980000D03*
D18*
X137160000Y-99060000D03*
%TD*%
D19*
%TO.C,D5*%
X154940000Y-96520000D03*
D20*
X157480000Y-96520000D03*
%TD*%
D19*
%TO.C,D4*%
X154940000Y-83820000D03*
D20*
X157480000Y-83820000D03*
%TD*%
D17*
%TO.C,D3*%
X127000000Y-91440000D03*
D18*
X121920000Y-91440000D03*
%TD*%
D17*
%TO.C,D2*%
X149860000Y-99060000D03*
D18*
X149860000Y-93980000D03*
%TD*%
D17*
%TO.C,D1*%
X149860000Y-83820000D03*
D18*
X149860000Y-78740000D03*
%TD*%
M02*
